<svg width="32" height="33" viewBox="0 0 32 33" fill="none" xmlns="http://www.w3.org/2000/svg">
<path d="M7.13008 7.26925H29.7121C30.3649 7.26925 30.8427 7.88454 30.681 8.51697L28.7801 15.951C28.4405 17.2789 27.2442 18.2078 25.8736 18.2078H9.02537M0 1H4.65214C5.63535 1 6.47274 1.71465 6.62728 2.68564L9.6467 21.6566C9.80125 22.6276 10.6386 23.3423 11.6218 23.3423H28.203" stroke="black" stroke-width="1.5"/>
<path d="M15.7689 29.766C15.7689 31.0682 14.7584 32.0762 13.5695 32.0762C12.3807 32.0762 11.3701 31.0682 11.3701 29.766C11.3701 28.4638 12.3807 27.4558 13.5695 27.4558C14.7584 27.4558 15.7689 28.4638 15.7689 29.766Z" stroke="black" stroke-width="1.5"/>
<path d="M28.746 29.766C28.746 31.0682 27.7354 32.0762 26.5466 32.0762C25.3577 32.0762 24.3472 31.0682 24.3472 29.766C24.3472 28.4638 25.3577 27.4558 26.5466 27.4558C27.7354 27.4558 28.746 28.4638 28.746 29.766Z" stroke="black" stroke-width="1.5"/>
</svg>
